<mxfile host="app.diagrams.net" agent="Mozilla/5.0 (Windows NT 10.0; Win64; x64) AppleWebKit/537.36 (KHTML, like Gecko) Chrome/138.0.0.0 Safari/537.36" version="27.2.0">
  <diagram name="Trang-1" id="oPqR2clKj8hGf9dE3mN_">
    <mxGraphModel dx="1138" dy="408" grid="1" gridSize="10" guides="1" tooltips="1" connect="1" arrows="1" fold="1" page="1" pageScale="1" pageWidth="1169" pageHeight="1800" math="0" shadow="0">
      <root>
        <mxCell id="0" />
        <mxCell id="1" parent="0" />
        <mxCell id="2" value="Người dùng" style="swimlane;fontStyle=1;align=center;verticalAlign=top;childLayout=stackLayout;horizontal=1;startSize=26;horizontalStack=0;resizeParent=1;resizeParentMax=0;resizeLast=0;collapsible=1;marginBottom=0;whiteSpace=wrap;html=1;fontFamily=Arial;fontSize=12;" parent="1" vertex="1">
          <mxGeometry x="40" y="40" width="280" height="1720" as="geometry" />
        </mxCell>
        <mxCell id="3" value="" style="ellipse;html=1;shape=startState;fillColor=#000000;strokeColor=#000000;" parent="2" vertex="1">
          <mxGeometry x="125" y="60" width="30" height="30" as="geometry" />
        </mxCell>
        <mxCell id="4" value="Truy cập vào nhóm làm việc" style="rounded=1;whiteSpace=wrap;html=1;arcSize=40;fillColor=#FFE6CC;strokeColor=#D79B00;verticalAlign=middle;fontFamily=Arial;fontSize=12;" parent="2" vertex="1">
          <mxGeometry x="70" y="130" width="180" height="60" as="geometry" />
        </mxCell>
        <mxCell id="5" value="Chọn chức năng &#39;Quản lý dự án&#39;" style="rounded=1;whiteSpace=wrap;html=1;arcSize=40;fillColor=#FFE6CC;strokeColor=#D79B00;verticalAlign=middle;fontFamily=Arial;fontSize=12;" parent="2" vertex="1">
          <mxGeometry x="70" y="310" width="180" height="60" as="geometry" />
        </mxCell>
        <mxCell id="6" value="Chọn hình thức" style="rhombus;whiteSpace=wrap;html=1;fillColor=#FFE6CC;strokeColor=#D79B00;verticalAlign=middle;fontFamily=Arial;fontSize=12;" parent="2" vertex="1">
          <mxGeometry x="65" y="490" width="190" height="80" as="geometry" />
        </mxCell>
        <mxCell id="7" value="Nhập và Lưu thông tin dự án mới" style="rounded=1;whiteSpace=wrap;html=1;arcSize=40;fillColor=#FFE6CC;strokeColor=#D79B00;verticalAlign=middle;fontFamily=Arial;fontSize=12;" parent="2" vertex="1">
          <mxGeometry x="70" y="1020" width="180" height="60" as="geometry" />
        </mxCell>
        <mxCell id="8" value="Chọn dự án từ danh sách &amp;amp; Xác nhận" style="rounded=1;whiteSpace=wrap;html=1;arcSize=40;fillColor=#FFE6CC;strokeColor=#D79B00;verticalAlign=middle;fontFamily=Arial;fontSize=12;" parent="2" vertex="1">
          <mxGeometry x="70" y="1410" width="180" height="60" as="geometry" />
        </mxCell>
        <mxCell id="50" value="" style="ellipse;html=1;shape=endState;fillColor=#000000;strokeColor=#000000;" parent="2" vertex="1">
          <mxGeometry x="125" y="1650" width="30" height="30" as="geometry" />
        </mxCell>
        <mxCell id="9" value="Hệ thống UniPlan" style="swimlane;fontStyle=1;align=center;verticalAlign=top;childLayout=stackLayout;horizontal=1;startSize=26;horizontalStack=0;resizeParent=1;resizeParentMax=0;resizeLast=0;collapsible=1;marginBottom=0;whiteSpace=wrap;html=1;fontFamily=Arial;fontSize=12;" parent="1" vertex="1">
          <mxGeometry x="320" y="40" width="600" height="1720" as="geometry" />
        </mxCell>
        <mxCell id="10" value="Hiển thị giao diện nhóm làm việc" style="rounded=1;whiteSpace=wrap;html=1;arcSize=40;fillColor=#D9E8FB;strokeColor=#6C8EBF;verticalAlign=middle;fontFamily=Arial;fontSize=12;" parent="9" vertex="1">
          <mxGeometry x="230" y="220" width="180" height="60" as="geometry" />
        </mxCell>
        <mxCell id="11" value="Hiển thị tùy chọn QL dự án" style="rounded=1;whiteSpace=wrap;html=1;arcSize=40;fillColor=#D9E8FB;strokeColor=#6C8EBF;verticalAlign=middle;fontFamily=Arial;fontSize=12;" parent="9" vertex="1">
          <mxGeometry x="230" y="400" width="180" height="60" as="geometry" />
        </mxCell>
        <mxCell id="12" value="Kiểm tra quyền truy cập" style="rhombus;whiteSpace=wrap;html=1;fillColor=#D9E8FB;strokeColor=#6C8EBF;verticalAlign=middle;fontFamily=Arial;fontSize=12;" parent="9" vertex="1">
          <mxGeometry x="225" y="610" width="190" height="80" as="geometry" />
        </mxCell>
        <mxCell id="13" value="Hiển thị form Tạo dự án mới" style="rounded=1;whiteSpace=wrap;html=1;arcSize=40;fillColor=#D9E8FB;strokeColor=#6C8EBF;verticalAlign=middle;fontFamily=Arial;fontSize=12;" parent="9" vertex="1">
          <mxGeometry x="230" y="910" width="180" height="60" as="geometry" />
        </mxCell>
        <mxCell id="14" value="Kiểm tra thông tin hợp lệ" style="rhombus;whiteSpace=wrap;html=1;fillColor=#D9E8FB;strokeColor=#6C8EBF;verticalAlign=middle;fontFamily=Arial;fontSize=12;" parent="9" vertex="1">
          <mxGeometry x="225" y="1010" width="190" height="80" as="geometry" />
        </mxCell>
        <mxCell id="15" value="Tạo dự án &amp; Cập nhật dữ liệu" style="rounded=1;whiteSpace=wrap;html=1;arcSize=40;fillColor=#D9E8FB;strokeColor=#6C8EBF;verticalAlign=middle;fontFamily=Arial;fontSize=12;" parent="9" vertex="1">
          <mxGeometry x="230" y="1150" width="180" height="60" as="geometry" />
        </mxCell>
        <mxCell id="16" value="Hiển thị thông báo lỗi" style="rounded=1;whiteSpace=wrap;html=1;arcSize=40;fillColor=#F8CECC;strokeColor=#B85450;verticalAlign=middle;fontFamily=Arial;fontSize=12;" parent="9" vertex="1">
          <mxGeometry x="430" y="1020" width="180" height="60" as="geometry" />
        </mxCell>
        <mxCell id="17" value="Hiển thị thông báo &#39;Không có quyền&#39;" style="rounded=1;whiteSpace=wrap;html=1;arcSize=40;fillColor=#F8CECC;strokeColor=#B85450;verticalAlign=middle;fontFamily=Arial;fontSize=12;" parent="9" vertex="1">
          <mxGeometry x="430" y="620" width="180" height="60" as="geometry" />
        </mxCell>
        <mxCell id="18" value="Cập nhật giao diện &amp;amp; Thông báo thành công" style="rounded=1;whiteSpace=wrap;html=1;arcSize=40;fillColor=#D9E8FB;strokeColor=#6C8EBF;verticalAlign=middle;fontFamily=Arial;fontSize=12;" parent="9" vertex="1">
          <mxGeometry x="230" y="1530" width="180" height="60" as="geometry" />
        </mxCell>
        <mxCell id="20" value="Tìm kiếm &amp; Hiển thị danh sách dự án có sẵn" style="rounded=1;whiteSpace=wrap;html=1;arcSize=40;fillColor=#D9E8FB;strokeColor=#6C8EBF;verticalAlign=middle;fontFamily=Arial;fontSize=12;" parent="9" vertex="1">
          <mxGeometry x="230" y="1320" width="180" height="60" as="geometry" />
        </mxCell>
        <mxCell id="30" value="Kiểm tra trạng thái dự án" style="rhombus;whiteSpace=wrap;html=1;fillColor=#D9E8FB;strokeColor=#6C8EBF;verticalAlign=middle;fontFamily=Arial;fontSize=12;" parent="9" vertex="1">
          <mxGeometry x="225" y="1400" width="190" height="80" as="geometry" />
        </mxCell>
        <mxCell id="31" value="Hiển thị thông báo lỗi &#39;Dự án không hợp lệ&#39;" style="rounded=1;whiteSpace=wrap;html=1;arcSize=40;fillColor=#F8CECC;strokeColor=#B85450;verticalAlign=middle;fontFamily=Arial;fontSize=12;" parent="9" vertex="1">
          <mxGeometry x="430" y="1410" width="180" height="60" as="geometry" />
        </mxCell>
        <mxCell id="32" value="Gán dự án &amp; Cập nhật dữ liệu" style="rounded=1;whiteSpace=wrap;html=1;arcSize=40;fillColor=#D9E8FB;strokeColor=#6C8EBF;verticalAlign=middle;fontFamily=Arial;fontSize=12;" parent="9" vertex="1">
          <mxGeometry x="230" y="1240" width="180" height="60" as="geometry" />
        </mxCell>
        <mxCell id="21" value="" style="edgeStyle=orthogonalEdgeStyle;endArrow=classic;html=1;rounded=0;" parent="1" source="3" target="4" edge="1">
          <mxGeometry width="50" height="50" relative="1" as="geometry">
            <mxPoint x="140" y="90" as="sourcePoint" />
            <mxPoint x="140" y="130" as="targetPoint" />
          </mxGeometry>
        </mxCell>
        <mxCell id="23" value="" style="edgeStyle=orthogonalEdgeStyle;endArrow=classic;html=1;rounded=0;" parent="1" source="4" target="10" edge="1">
          <mxGeometry width="50" height="50" relative="1" as="geometry">
            <mxPoint x="160" y="190" as="sourcePoint" />
            <mxPoint x="520" y="250" as="targetPoint" />
          </mxGeometry>
        </mxCell>
        <mxCell id="24" value="" style="edgeStyle=orthogonalEdgeStyle;endArrow=classic;html=1;rounded=0;" parent="1" source="10" target="5" edge="1">
          <mxGeometry width="50" height="50" relative="1" as="geometry">
            <mxPoint x="520" y="280" as="sourcePoint" />
            <mxPoint x="160" y="340" as="targetPoint" />
          </mxGeometry>
        </mxCell>
        <mxCell id="25" value="" style="edgeStyle=orthogonalEdgeStyle;endArrow=classic;html=1;rounded=0;" parent="1" source="5" target="11" edge="1">
          <mxGeometry width="50" height="50" relative="1" as="geometry">
            <mxPoint x="160" y="370" as="sourcePoint" />
            <mxPoint x="520" y="430" as="targetPoint" />
          </mxGeometry>
        </mxCell>
        <mxCell id="26" value="" style="edgeStyle=orthogonalEdgeStyle;endArrow=classic;html=1;rounded=0;" parent="1" source="11" target="6" edge="1">
          <mxGeometry width="50" height="50" relative="1" as="geometry">
            <mxPoint x="520" y="460" as="sourcePoint" />
            <mxPoint x="160" y="530" as="targetPoint" />
          </mxGeometry>
        </mxCell>
        <mxCell id="27" value="Tạo dự án mới" style="edgeStyle=orthogonalEdgeStyle;endArrow=classic;html=1;rounded=0;fontSize=11;labelBackgroundColor=#FFFFFF;" parent="1" source="6" target="12" edge="1">
          <mxGeometry width="50" height="50" relative="1" as="geometry">
            <mxPoint x="160" y="570" as="sourcePoint" />
            <mxPoint x="520" y="650" as="targetPoint" />
          </mxGeometry>
        </mxCell>
        <mxCell id="28" value="Có quyền" style="edgeStyle=orthogonalEdgeStyle;endArrow=classic;html=1;rounded=0;fontSize=11;labelBackgroundColor=#FFFFFF;" parent="1" source="12" target="13" edge="1">
          <mxGeometry width="50" height="50" relative="1" as="geometry">
            <mxPoint x="520" y="690" as="sourcePoint" />
            <mxPoint x="520" y="910" as="targetPoint" />
          </mxGeometry>
        </mxCell>
        <mxCell id="29" value="Không có quyền" style="edgeStyle=orthogonalEdgeStyle;endArrow=classic;html=1;rounded=0;fontSize=11;labelBackgroundColor=#FFFFFF;" parent="1" source="12" target="17" edge="1">
          <mxGeometry width="50" height="50" relative="1" as="geometry">
            <mxPoint x="415" y="650" as="sourcePoint" />
            <mxPoint x="430" y="650" as="targetPoint" />
          </mxGeometry>
        </mxCell>
        <mxCell id="33" value="" style="edgeStyle=orthogonalEdgeStyle;endArrow=classic;html=1;rounded=0;entryX=0.5;entryY=1;entryDx=0;entryDy=0;" parent="1" source="17" target="6" edge="1">
          <mxGeometry width="50" height="50" relative="1" as="geometry">
            <mxPoint x="520" y="680" as="sourcePoint" />
            <mxPoint x="160" y="570" as="targetPoint" />
            <Array as="points">
              <mxPoint x="840" y="610" />
            </Array>
          </mxGeometry>
        </mxCell>
        <mxCell id="34" value="" style="edgeStyle=orthogonalEdgeStyle;endArrow=classic;html=1;rounded=0;" parent="1" source="13" target="7" edge="1">
          <mxGeometry width="50" height="50" relative="1" as="geometry">
            <mxPoint x="520" y="940" as="sourcePoint" />
            <mxPoint x="160" y="1050" as="targetPoint" />
          </mxGeometry>
        </mxCell>
        <mxCell id="35" value="" style="edgeStyle=orthogonalEdgeStyle;endArrow=classic;html=1;rounded=0;" parent="1" source="7" target="14" edge="1">
          <mxGeometry width="50" height="50" relative="1" as="geometry">
            <mxPoint x="160" y="1080" as="sourcePoint" />
            <mxPoint x="520" y="1050" as="targetPoint" />
          </mxGeometry>
        </mxCell>
        <mxCell id="36" value="Hợp lệ" style="edgeStyle=orthogonalEdgeStyle;endArrow=classic;html=1;rounded=0;fontSize=11;labelBackgroundColor=#FFFFFF;" parent="1" source="14" target="15" edge="1">
          <mxGeometry width="50" height="50" relative="1" as="geometry">
            <mxPoint x="520" y="1090" as="sourcePoint" />
            <mxPoint x="520" y="1150" as="targetPoint" />
          </mxGeometry>
        </mxCell>
        <mxCell id="37" value="Không hợp lệ" style="edgeStyle=orthogonalEdgeStyle;endArrow=classic;html=1;rounded=0;fontSize=11;labelBackgroundColor=#FFFFFF;" parent="1" source="14" target="16" edge="1">
          <mxGeometry x="-1" y="-21" width="50" height="50" relative="1" as="geometry">
            <mxPoint x="415" y="1050" as="sourcePoint" />
            <mxPoint x="430" y="1050" as="targetPoint" />
            <mxPoint x="-5" y="-1" as="offset" />
          </mxGeometry>
        </mxCell>
        <mxCell id="38" value="" style="edgeStyle=orthogonalEdgeStyle;endArrow=classic;html=1;rounded=0;entryX=0.5;entryY=1;entryDx=0;entryDy=0;" parent="1" source="16" target="7" edge="1">
          <mxGeometry width="50" height="50" relative="1" as="geometry">
            <mxPoint x="520" y="1080" as="sourcePoint" />
            <mxPoint x="160" y="1080" as="targetPoint" />
            <Array as="points">
              <mxPoint x="840" y="1030" />
              <mxPoint x="520" y="1030" />
              <mxPoint x="520" y="1140" />
              <mxPoint x="200" y="1140" />
            </Array>
          </mxGeometry>
        </mxCell>
        <mxCell id="39" value="" style="edgeStyle=orthogonalEdgeStyle;endArrow=classic;html=1;rounded=0;" parent="1" source="15" target="32" edge="1">
          <mxGeometry width="50" height="50" relative="1" as="geometry">
            <mxPoint x="520" y="1210" as="sourcePoint" />
            <mxPoint x="520" y="1270" as="targetPoint" />
          </mxGeometry>
        </mxCell>
        <mxCell id="40" value="Gán dự án có sẵn" style="edgeStyle=orthogonalEdgeStyle;endArrow=classic;html=1;rounded=0;fontSize=11;labelBackgroundColor=#FFFFFF;" parent="1" source="6" target="12" edge="1">
          <mxGeometry width="50" height="50" relative="1" as="geometry">
            <mxPoint x="160" y="570" as="sourcePoint" />
            <mxPoint x="520" y="650" as="targetPoint" />
            <Array as="points">
              <mxPoint x="160" y="650" />
            </Array>
          </mxGeometry>
        </mxCell>
        <mxCell id="41" value="" style="edgeStyle=orthogonalEdgeStyle;endArrow=classic;html=1;rounded=0;" parent="1" source="32" target="20" edge="1">
          <mxGeometry width="50" height="50" relative="1" as="geometry">
            <mxPoint x="520" y="1300" as="sourcePoint" />
            <mxPoint x="520" y="1350" as="targetPoint" />
          </mxGeometry>
        </mxCell>
        <mxCell id="42" value="" style="edgeStyle=orthogonalEdgeStyle;endArrow=classic;html=1;rounded=0;" parent="1" source="20" target="30" edge="1">
          <mxGeometry width="50" height="50" relative="1" as="geometry">
            <mxPoint x="520" y="1380" as="sourcePoint" />
            <mxPoint x="520" y="1440" as="targetPoint" />
          </mxGeometry>
        </mxCell>
        <mxCell id="43" value="" style="edgeStyle=orthogonalEdgeStyle;endArrow=classic;html=1;rounded=0;" parent="1" source="30" target="8" edge="1">
          <mxGeometry width="50" height="50" relative="1" as="geometry">
            <mxPoint x="520" y="1480" as="sourcePoint" />
            <mxPoint x="160" y="1440" as="targetPoint" />
          </mxGeometry>
        </mxCell>
        <mxCell id="44" value="Hợp lệ" style="edgeStyle=orthogonalEdgeStyle;endArrow=classic;html=1;rounded=0;fontSize=11;labelBackgroundColor=#FFFFFF;" parent="1" source="30" target="18" edge="1">
          <mxGeometry width="50" height="50" relative="1" as="geometry">
            <mxPoint x="520" y="1480" as="sourcePoint" />
            <mxPoint x="520" y="1560" as="targetPoint" />
          </mxGeometry>
        </mxCell>
        <mxCell id="45" value="Không hợp lệ" style="edgeStyle=orthogonalEdgeStyle;endArrow=classic;html=1;rounded=0;fontSize=11;labelBackgroundColor=#FFFFFF;" parent="1" source="30" target="31" edge="1">
          <mxGeometry width="50" height="50" relative="1" as="geometry">
            <mxPoint x="415" y="1440" as="sourcePoint" />
            <mxPoint x="430" y="1440" as="targetPoint" />
          </mxGeometry>
        </mxCell>
        <mxCell id="46" value="" style="edgeStyle=orthogonalEdgeStyle;endArrow=classic;html=1;rounded=0;entryX=0.5;entryY=1;entryDx=0;entryDy=0;" parent="1" source="31" target="8" edge="1">
          <mxGeometry width="50" height="50" relative="1" as="geometry">
            <mxPoint x="520" y="1470" as="sourcePoint" />
            <mxPoint x="160" y="1470" as="targetPoint" />
            <Array as="points">
              <mxPoint x="520" y="1470" />
            </Array>
          </mxGeometry>
        </mxCell>
        <mxCell id="47" value="" style="edgeStyle=orthogonalEdgeStyle;endArrow=classic;html=1;rounded=0;" parent="1" source="8" target="18" edge="1">
          <mxGeometry width="50" height="50" relative="1" as="geometry">
            <mxPoint x="160" y="1470" as="sourcePoint" />
            <mxPoint x="520" y="1560" as="targetPoint" />
          </mxGeometry>
        </mxCell>
        <mxCell id="48" value="" style="edgeStyle=orthogonalEdgeStyle;endArrow=classic;html=1;rounded=0;" parent="1" source="18" target="50" edge="1">
          <mxGeometry width="50" height="50" relative="1" as="geometry">
            <mxPoint x="520" y="1590" as="sourcePoint" />
            <mxPoint x="140" y="1665" as="targetPoint" />
            <Array as="points">
              <mxPoint x="520" y="1665" />
            </Array>
          </mxGeometry>
        </mxCell>
      </root>
    </mxGraphModel>
  </diagram>
</mxfile>
